<svg xmlns="http://www.w3.org/2000/svg" enable-background="new 0 0 1080 1080" viewBox="0 0 1080 1080" id="fishing"><path fill="#f7f7f7" d="M135.25 816.95a2030.254 2030.254 0 0 1 106.9-181.92c15.63-23.68 33.2-48.25 59.42-59.09 23.02-9.52 49.93-6.73 72.53 3.75 22.61 10.48 41.31 28 56.89 47.44 13.4 16.72 27.65 36.76 49 38.54 22.78 1.9 40.79-18.03 54.81-36.09 46.08-59.38 92.16-118.76 138.23-178.14 15.24-19.64 34.09-41.14 58.95-41.07 22.28.06 40.24 17.72 54.13 35.14 81.3 101.98 113 233.66 142.51 360.69l-793.37 10.75z"></path><path fill="#cef" d="M828.79 639.24c-19.12 10.37-32.1 30.61-32.1 53.89 0 33.84 27.43 61.27 61.27 61.27 26.1 0 48.39-16.33 57.22-39.32l-86.39-75.84z"></path><circle cx="923.53" cy="618.44" r="96.99" fill="#b0e1ff"></circle><path fill="#cef" d="M923.53 810.11c1.23 0 2.22-.99 2.22-2.22V618.44c0-1.23-.99-2.22-2.22-2.22-1.23 0-2.22.99-2.22 2.22v189.45c0 1.23.99 2.22 2.22 2.22z"></path><path fill="#cef" d="M923.53 670.89c.57 0 1.13-.22 1.57-.65l27.16-27.16c.87-.87.87-2.27 0-3.14-.87-.87-2.27-.86-3.14 0l-27.16 27.16c-.87.87-.87 2.27 0 3.13.44.44 1 .66 1.57.66zM923.53 696.11c.57 0 1.13-.22 1.57-.65l27.16-27.16c.87-.87.87-2.27 0-3.13-.87-.87-2.27-.86-3.14 0l-27.16 27.16c-.87.87-.87 2.27 0 3.13.44.43 1 .65 1.57.65zM858.35 810.07c1.08-.19 1.82-1.21 1.82-2.31V708.5c0-1.2-.9-2.28-2.1-2.34-1.28-.07-2.34.95-2.34 2.21v99.51c.01 1.37 1.22 2.44 2.62 2.19z"></path><path fill="#cef" d="M857.96 722.9c.57 0 1.14-.22 1.57-.65.87-.86.87-2.27 0-3.13l-19.58-19.58c-.87-.87-2.27-.87-3.14 0-.87.86-.87 2.27 0 3.13l19.58 19.58c.43.44 1 .65 1.57.65zM857.96 741.09c.57 0 1.14-.22 1.57-.65.87-.86.87-2.27 0-3.13l-19.58-19.58c-.87-.87-2.27-.87-3.14 0-.87.86-.87 2.27 0 3.13l19.58 19.58c.43.43 1 .65 1.57.65z"></path><path fill="#cce9ff" d="M996.28 359.06c-13.58-23.14-35.52-41.25-60.82-50.19-10.85-3.84-24.04-5.64-32.95 1.66-8.9 7.29-5.8 25.95 5.71 25.7-35.53-24.59-78.32-38.54-121.52-39.61-10.82-.27-23.05.9-29.91 9.28-6.85 8.38-1.1 25.05 9.54 23.07-32.63-20.9-75.64-14.49-112.15-1.51-10.58 3.76-21.06 8.03-31.56 12.25-11.48 4.62-8.12 21.69 4.25 21.62l369.41-2.27zM177.86 279.9c-9.75 3.55-19.58-8.51-17.48-18.67 2.1-10.16 11.54-17.12 21.04-21.29 21.51-9.43 47.01-9.32 68.43.32-4.98-3.8-4.59-11.97-.62-16.82s10.34-7 16.49-8.18c29.32-5.61 61.37 7.32 78.59 31.7-5.65-5.96-2.6-16.66 4.22-21.23s15.76-4.44 23.85-3c34.71 6.18 64.16 25.13 70.8 59.75l-265.32-2.58z"></path><circle cx="168.95" cy="652.32" r="76.75" fill="#b0e1ff"></circle><path fill="#cef" d="M168.95 803.99c-.97 0-1.76-.79-1.76-1.75V652.32c0-.97.79-1.76 1.76-1.76s1.76.79 1.76 1.76v149.92a1.76 1.76 0 0 1-1.76 1.75z"></path><path fill="#cef" d="M168.95 693.82c-.45 0-.9-.17-1.24-.51l-21.49-21.49c-.69-.69-.69-1.8 0-2.48.69-.69 1.8-.68 2.48 0l21.49 21.5c.69.69.69 1.8 0 2.48-.35.33-.8.5-1.24.5zM168.95 713.78c-.45 0-.9-.17-1.24-.51l-21.49-21.5c-.69-.69-.69-1.8 0-2.48.69-.69 1.8-.68 2.48 0l21.49 21.49c.69.69.69 1.8 0 2.48-.35.35-.8.52-1.24.52z"></path><path fill="#ffe3ca" d="M524.78 432.09c.12 1.69-2.34 9.39-6.09 17.11l-.01.01c-3.14 6.47-7.2 12.94-11.41 15.9l-7.31-1.11c.7-4.09-3.21-15.95-1.83-18.61 1.39-2.66 6.26-12.85 10.47-14.18 3.49-1.1 12.17-1.9 15.15-.37h.01c.61.31.98.72 1.02 1.25z"></path><path fill="#0b4870" d="M447.52 814.44s19.16-2.06 23.94-3.01c4.79-.96 15.8 6.7 12.93 11.97-2.87 5.27-20.59 12.93-31.13 9.1s-14.37 3.03-20.11 1.03-8.14-22.58-2.39-25.94 16.76 6.85 16.76 6.85zM363.33 831.32c15.71 8.84 28.64 26.56 23.85 32.78s-22.61 6.23-27.83 0-5.22-14.37-8.57-16.28c-3.35-1.92-16.28-4.31-15.8-8.62s4.82-16.86 4.82-16.86l23.53 8.98z"></path><path fill="#1a8ce2" d="M442.55 594.42s37.1 74.19 37.71 82.23-26.35 137.79-26.35 137.79h-28.97s6.8-75.16 17.23-102.53a20.93 20.93 0 0 0-2.41-19.44c-11.97-17.11-32.11-48.83-29.57-57.86 3.3-11.75-4.12-36.48-4.12-36.48l36.48-3.71z"></path><path fill="#2a94f4" d="M436.03 596.7c-2.02 2.7-12.14 24.27-12.14 24.27s5.39 74.16 0 92.37c-5.39 18.2-60.61 121.36-60.61 121.36h-31.76s22.06-80.1 46.89-110.65c4.66-5.73 6.29-13.34 4.29-20.45-10.35-36.71-21.23-87.04-19.14-106.9 32.01-11.46 72.47 0 72.47 0z"></path><path fill="#ffbe55" d="M414.16 463.44c-14.15-7.71-26.03-6.46-27.69 5.21-1.66 11.66 19.47 49.58 56.76 61.91 37.29 12.33 71.68-65.42 71.68-65.42l-17.92-6.56s-16.99 29.59-38.51 41.1-44.32-36.24-44.32-36.24z"></path><path fill="#ffbe55" d="M379.02 458.79s-35.01-1.65-38.96 6.25c-3.95 7.9 15.63 141.94 22.59 149.84 20.29.99 75.68-6.63 87.04-17.99-2.47-18.76-19.75-131.85-25.68-134.81-5.93-2.96-44.99-3.29-44.99-3.29z"></path><path fill="#0b4870" d="M354.59 409.69c-.88 4.13-.47 21.33.41 23.86.88 2.53 4.72 11.77 4.72 11.77l6.39 4.42 2.65 2.36s4.03-4.13 3.73-4.42-8.06-7.47-8.45-8.35c-.4-.88-9.45-29.64-9.45-29.64z"></path><path fill="#fcd2b1" d="m368.66 447.42.48 17.11 26.29 10.69 6.24-15.5-4.21-17.35z"></path><path fill="#ffe3ca" d="M406.99 418.22c0 2.07 3.41 13.29 3.19 15.24.01.01 0 .01 0 .02-1.62 13.67-8.86 23.94-21.66 23.94-14.64 0-31-13.43-31-30 0-6.22.75-11.16 2.06-15.06 5.03-14.94 18.34-14.94 29.94-14.94 14.64 0 17.47 4.23 17.47 20.8z"></path><path fill="#0b4870" d="M410.18 433.48c-1.62 13.67-8.86 23.94-21.66 23.94-14.64 0-31.34-13.43-31.34-30 0-6.22 1.09-11.16 2.4-15.06l1.84-1.69.28-.98s.9 20.21 1.84 23.98c.95 3.76 19.21 5.29 21.44 8.78 1.81-4.6 4.56-7.81 12.26-8.09 4.43-.16 8.28 4.3 8.84 5.83 1.08.29 2.52-3.43 4.1-6.71z"></path><path fill="#ffe3ca" d="M361.8 428.43c.92 3.03 1.53 6.73-.83 7.45-2.37.72-6.82-1.82-7.74-4.85-.92-3.03.25-6.07 2.62-6.79 2.37-.71 5.03 1.16 5.95 4.19z"></path><path fill="#ffbe55" d="M404.67 401.12c-6.82-10.34-19.59-20.72-31.56-16.13s-27.18 12.82-15.58 38.91c3.61-7.18 6.02-12.55 6.02-12.55l41.12-10.23z"></path><path fill="#ffbe55" d="M374.02 413.92s24-17 34-8c-2.25-5.54-19.84-25.83-44.48 5.43 2.69 3.11 4.61 6.24 10.48 2.57z"></path><path fill="#0b4870" d="m361.53 423.2 1.75 12.17-2.25 1.3-1-13.47z"></path><path fill="#ffbe55" d="M363.43 474.1c-9.44-13.07-20.69-17.06-27.23-7.26-6.53 9.8 3.27 51.91 31.58 79.13s118.33-53.72 118.33-53.72l-15.3-11.48s-43.75 37.98-68.13 39.07c-24.36 1.09-39.25-45.74-39.25-45.74z"></path><path fill="#0b4870" d="M485.91 470.75c16.39-25.13 33.95-49.36 52.43-72.9 18.5-23.51 38-46.27 58.83-67.77 10.42-10.74 21.18-21.17 32.37-31.11 5.6-4.97 11.3-9.83 17.11-14.55 5.83-4.7 11.77-9.26 17.85-13.64 12.14-8.77 24.87-16.77 38.25-23.55 13.37-6.76 27.45-12.28 42.13-15.46l.36 1.62c-14.45 3.4-28.26 9.11-41.37 16.03-13.11 6.95-25.57 15.09-37.45 24-5.94 4.45-11.76 9.07-17.45 13.84-5.68 4.78-11.25 9.71-16.71 14.74-10.92 10.07-21.41 20.61-31.57 31.46-20.3 21.72-39.26 44.68-57.22 68.37-17.93 23.71-34.98 48.14-50.72 73.28l-6.84-4.36z"></path><path fill="#ffe3ca" d="m471.45 484.01.98-11.42s4.92-4.33 7.48-3.35c2.3-4.6 1.89-9.33 3.11-12.2.86-2.03 6.99 2.95 6.99 5.23 0 3.35 5.52 9.94 5.57 12.76.14 7.8-15.08 18.03-15.08 18.03l-9.05-9.05z"></path><path fill="#fcd2b1" d="M524.78 432.09c.12 1.69-2.34 9.39-6.09 17.11l-.01.01c-4.85 5.65-8.93 7.3-10.84 7.35-1.91.06-6.16-10.02-6.16-10.02s5.94-12.74 8.07-14.43c2.12-1.7 14-1.27 14-1.27h.01c.61.31.98.72 1.02 1.25z"></path><circle cx="536.89" cy="410.64" r="4.5" fill="#2a94f4"></circle><circle cx="568.25" cy="370.34" r="4.5" fill="#2a94f4"></circle><circle cx="600.72" cy="333.45" r="4.5" fill="#2a94f4"></circle><circle cx="633.31" cy="302.26" r="4.5" fill="#2a94f4"></circle><path fill="#2a94f4" d="m754.46 536.85-1-.08c1.07-12.85-11.81-23.91-25.45-35.62-12.68-10.89-25.79-22.14-31.22-36.71-6.22-16.68-.81-34.69 16.54-55.07 29.57-34.73 42.88-59.23 45.95-84.57 3.06-25.26-3.81-51.19-14.22-90.45l-.65-2.46.97-.26.65 2.46c10.43 39.36 17.33 65.37 14.25 90.82-3.1 25.56-16.48 50.21-46.18 85.1-38.3 44.97-10.21 69.09 14.57 90.37 13.83 11.89 26.9 23.11 25.79 36.47zM766.63 569.99c4.68 7.01 5.52 27.07 3.29 33.2-6.13 1.11-9.41-12.54-9.41-12.54l6.12-20.66z"></path><path fill="#cce9ff" d="M766.62 570.03c-.8 4.69-2.11 9.88-3.73 15.87a52.85 52.85 0 0 1-2.03 6c-7.48 18.42-24.28 30.83-35.26 38.56a16.1 16.1 0 0 0-6.68 11.19c-.78 6.29-3.8 14.06-5.97 19.05-1.34 3.06-2.36 5.08-2.36 5.08s-9.88-12.35-8.23-30.06c-6.18 2.47-13.18-.41-22.24-7.41.82-1.81 3.34-3.21 7.03-4.31 5.58-1.66 13.85-2.61 23.03-3.1 15.23-.83 18.94-11.53 17.47-25.53-.32-3.12-.57-6.04-.77-8.78-.6-8.3-.65-14.93-.16-20.35.41-4.52 1.21-8.19 2.38-11.29 3.95-10.42 12.21-14.32 24.81-21.77 6.47 6.58 10.26 12.3 12.11 18.17.71 2.22 1.13 4.47 1.32 6.8.3 3.69.01 7.57-.72 11.88z"></path><path fill="#2a94f4" d="M737.87 561.39c-5.85 1.95-17.28 3.34-20.07 23.13 6.41 8.92 22.02-6.13 22.3-9.48.28-3.34-2.23-13.65-2.23-13.65zM712.95 660.7c-1.34 3.06-2.36 5.08-2.36 5.08s-9.88-12.35-8.23-30.06c-6.18 2.47-13.18-.41-22.24-7.41.82-1.81 3.34-3.21 7.03-4.31 5.02 3.83 12.11 9.1 19.58 8.38.4 6.71 2.87 20.07 6.22 28.32z"></path><path fill="#9cd9ff" d="M767.34 558.15c-10.28 5.26-30.05 4.16-38.24-3.2 3.95-10.42 12.21-14.32 24.81-21.77 6.47 6.58 10.26 12.3 12.11 18.17.71 2.22 1.13 4.47 1.32 6.8z"></path><path fill="#0e538c" d="M104.22 727.93c77.67 49.93 638.42 94.15 859.08 0 12.05 104.76-58.84 161.81-58.84 161.81H151.29c0 .01-70.6-82.17-47.07-161.81z"></path><path fill="#cce9ff" d="M99.42 855.77c84.74 2.03 84.77 26 169.53 26 84.77 0 84.77-26 169.53-26 84.77 0 84.77 26 169.53 26 84.77 0 84.77-26 169.54-26s84.8 23.69 169.54 26c20.06.55 18.86 35.04 18.86 35.04-2.33 19.23-18.98 34.27-37.29 40.58-18.32 6.31-38.2 5.58-57.56 4.79l-162.29-6.69c-12.56-.52-29.06 1.9-31.27 14.28-2 11.18 9.95 19.31 20.02 24.58 10.07 5.26 21.6 14.53 18.25 25.38-2.98 9.65-15.34 11.98-25.42 12.62-103.78 6.6-335.52 21.06-345.4 14.86-9.88-6.2-14.39-21.98-5.53-29.57 6.4-5.49 17.78-5.52 20.68-13.44 3.6-9.84-9.96-16.61-20.31-18.22a1271.217 1271.217 0 0 0-229.44-14.74c-13.52.36-27.49.86-40.06-4.14-12.57-5-23.4-17.15-22.24-30.62.02-.03-15.99-82.32 51.33-80.71z"></path></svg>