<svg
  xmlns="http://www.w3.org/2000/svg"
  enable-background="new 0 0 512 512"
  version="1"
  viewBox="0 0 512 512"
  id="fish"
><path
    fill="#998675"
    d="M346.6,358.8L346.6,358.8c-45.7,77.3-82,76.4-95.9,72.2c-1.6-0.5-2.8-1.7-3.4-3.2
				c-0.6-1.5-0.4-3.3,0.4-4.7c13-22.5,8.2-51-11.6-67.9l0.2,0c20.3,6.1,41.4,9.8,62.7,9.8C315.1,364.9,331.1,362.8,346.6,358.8z"
  /><path
    d="M339.1,358.8C339.1,358.8,339.1,358.8,339.1,358.8c0.3-1.3,0.7-2.5,1-3.8c-11.9,20-25.5,39.5-43.4,54.6
					c-5.2,4.4-10.9,8-17,11c-2.2,1-3.9,1.7-7,2.6c-1.2,0.4-2.5,0.7-3.7,1c-0.6,0.1-4.2,0.7-2.1,0.4c-1.9,0.3-3.9,0.4-5.8,0.4
					c-0.9,0-1.9-0.1-2.8-0.1c-0.4,0-0.9-0.1-1.3-0.1c-1.6-0.2,1.9,0.3,0.3,0c-1.5-0.2-2.9-0.6-4.3-1c2.1,0.6,1.2,3.2,2.6,0.5
					c0.7-1.3,1.2-2.6,1.8-3.9c1.2-2.8,2.2-5.6,3-8.5c6.2-22.3-1.8-46.9-19-62c-1.8,4.3-3.5,8.5-5.3,12.8c-0.6,0,3.7,1.3,3.6,1.3
					c2.4,0.7,4.8,1.3,7.2,1.9c4.8,1.2,9.7,2.2,14.7,3.1c9.3,1.7,18.7,2.8,28.1,3.3c19.8,1.1,39.8-1.3,59-6.2
					c9.4-2.4,5.4-16.9-4-14.5c-18,4.6-36.4,6.5-55,5.7c-9.3-0.4-18.6-1.7-27.7-3.4c-4.3-0.8-8.5-1.8-12.8-2.9c-4.2-1-8.6-3-13-3.3
					c-6.4-0.4-10.1,8.6-5.3,12.8c8.9,7.8,14.3,17.6,16.3,29.3c0.9,5,0.5,10.4-0.5,15.4c-1.2,6.4-4.3,11.6-6.8,17.5
					c-2.6,6.3,3,13.8,8.8,15.6c1.5,0.5,3.1,0.8,4.6,1.1c4.5,0.7,9,0.9,13.6,0.4c14.3-1.7,26.7-8.6,37.9-17.4
					c19.2-14.9,33.7-35.8,46.2-56.3c1.4-2.2,3-4.5,3-7.2C354.1,349.1,339.1,349.1,339.1,358.8z"
  /><path
    fill="#998675"
    d="M78.2,257c0,1.6,0.6,3,1.7,4.1c8.8,8.2,30.4,27.2,59.8,46.8C94.3,370,40,371.9,17.2,367.5
				c-2-0.4-3.7-2-4.1-4c-0.5-2,0.3-4.2,2-5.4c32.5-23.8,51.7-61.6,51.8-101.9c0.1-0.9,0.1-1.7,0.1-2.6
				c0.7-41.2-18.6-80.1-51.8-104.5c-1.7-1.3-2.4-3.4-2-5.4c0.5-2,2.1-3.6,4.1-4.1c23.6-4.6,83,0,129.5,69.4
				c-0.1,0.1-0.2,0.1-0.3,0.2C114,227.1,89.9,245.3,80.2,253C79,254,78.3,255.4,78.2,257z"
  /><path
    d="M70.7,257c0.7,6.8,4.7,10.2,9.5,14.5c4.5,4,9.1,7.9,13.8,11.8c13.4,11.1,27.4,21.5,41.9,31.2c-0.9-3.4-1.8-6.8-2.7-10.3
					c-24.3,32.9-60.8,58.4-102.6,57.3c-2.8-0.1-5.7-0.3-8.5-0.7c1.8,0.2-1.7-0.3-2.2-0.4c-2-0.4,2.1,1.9,0.3,3.2
					c1.8-1.3,3.5-2.7,5.2-4c10-8,18.6-17.7,25.9-28.3c14.6-21,22.3-46.6,23.1-72.1c0.8-25.8-4.4-50.6-16.8-73.3
					c-6.1-11.1-14.1-21.3-23-30.2c-4.4-4.4-9.3-8.4-14.3-12.1c1.7,1.3-2.2,3.5-0.4,3.2c0.5-0.1,1.1-0.2,1.6-0.3
					c0.3-0.1,2.3-0.3,0.3-0.1c0.8-0.1,1.7-0.2,2.5-0.3c34.7-3.2,68.7,14.3,93.2,38.6c8.6,8.5,16.2,18,22.9,28.1
					c0.9-3.4,1.8-6.8,2.7-10.3c-15.3,8.4-30,17.6-44.4,27.5c-5.3,3.7-10.5,7.5-15.7,11.4c-4.9,3.7-10.8,7.1-12,13.5
					c-1.7,9.5,12.7,13.5,14.5,4c0.5-2.5,6.3-5.5,8.4-7.1c4.8-3.6,9.8-7.1,14.7-10.5c13.6-9.3,27.6-17.9,42-25.9
					c3.4-1.9,4.9-6.9,2.7-10.3c-24.5-36.2-60.4-66.6-104.8-73.1c-7-1-13.9-1.5-21-1.2c-7.6,0.3-16,0.7-20.5,7.8
					c-3.7,5.8-0.7,13.2,4.3,16.9c5.2,3.9,10.1,8.2,14.6,12.9c8.7,8.9,15.7,19.2,21.3,30.3C69.8,243.6,61,301.1,27,337.5
					c-4.2,4.5-8.8,8.6-13.5,12.4c-5.4,4.4-9.8,9.2-7.2,16.7c3.1,8.9,13.4,9.1,21.2,9.7c16.1,1.1,32.6-1.9,47.7-7.6
					c29.2-11,52.6-32.2,70.9-57c2.5-3.4,0.4-8.2-2.7-10.3c-12.6-8.4-24.8-17.4-36.6-27c-4.4-3.5-8.6-7.2-12.9-10.8
					c-1.8-1.5-3.5-3.1-5.2-4.7c-0.6-0.6-1.2-1.1-1.9-1.7c-1.3-1.1-1.3-2.2-1.1-0.3c-0.4-4.1-3.1-7.5-7.5-7.5
					C74.4,249.5,70.3,252.9,70.7,257z"
  /><path
    d="M138.1 210.8c1.7 1.9 3.3 3.9 4.9 5.8 2.2 2.5 6.4 2.8 9.1 1.2 3.4-2 4.9-6.8 2.7-10.3-.5-.8-1-1.5-1.5-2.3-2.3-3.4-6.6-4.9-10.3-2.7-3.3 2-5 6.9-2.7 10.3.5.8 1 1.5 1.5 2.3 3.9-3 7.9-6.1 11.8-9.1-1.6-1.9-3.3-3.9-4.9-5.8-2.7-3.1-7.9-2.7-10.6 0-1.4 1.4-2.2 3.3-2.2 5.3C135.9 207.6 136.8 209.3 138.1 210.8L138.1 210.8zM134.3 302.6c-.9 1-1.8 2.1-2.6 3.1-1.3 1.6-2.2 3.2-2.2 5.3 0 2 .8 3.9 2.2 5.3s3.3 2.2 5.3 2.2c1.8 0 4.1-.7 5.3-2.2.9-1 1.8-2.1 2.6-3.1 1.3-1.6 2.2-3.2 2.2-5.3 0-2-.8-3.9-2.2-5.3s-3.3-2.2-5.3-2.2C137.8 300.4 135.5 301.1 134.3 302.6L134.3 302.6zM241.1 187.2c0-4.7 0-9.3-.1-14 0-9.7-15-9.7-15 0 0 4.7.1 9.3.1 14C226.1 196.9 241.1 196.9 241.1 187.2L241.1 187.2zM345 170.7c0 1.8.1 3.7.1 5.5 5 0 10 0 15 0-.1-1.8-.2-3.6-.3-5.4-.3-4.1-3.2-7.5-7.5-7.5-3.9 0-7.8 3.4-7.5 7.5.1 1.8.2 3.6.3 5.4.1 4.1 3.3 7.5 7.5 7.5 4 0 7.6-3.4 7.5-7.5 0-1.8-.1-3.7-.1-5.5 0-4.1-3.4-7.5-7.5-7.5C348.5 163.2 345 166.6 345 170.7L345 170.7z"
  /><path
    fill="#998675"
    d="M352.3,170.8c-17.4-4.4-35.4-6.7-53.4-6.7c-22.3,0-44.3,3.5-65.4,9.1c0,0,0,0-0.1,0
			c-0.1-28.4-0.2-89.9,0.5-91.1c0.9-1.5,2.5-2.4,4.3-2.5C265.2,78.5,346.4,87.3,352.3,170.8z"
  /><path
    d="M354.3,163.5c-20.6-5.1-41.8-7.5-63-6.9c-10.2,0.3-20.3,1.5-30.3,3c-9.8,1.5-20.1,3.1-29.5,6.3c3.2,2.4,6.3,4.8,9.5,7.2
				c-0.1-20-0.1-40,0-60c0-8.1,0.1-16.2,0.2-24.3c0-1.9,0.1-3.9,0.2-5.8c0-0.7,0.3-1.8-0.2,1.2c0,0.3-1,2.8-2.5,2.9
				c1.2,0,2.4-0.1,3.5-0.1c25.5-0.1,53.8,6.8,74.3,24.2c17.7,15,26.4,36.7,28.2,59.5c0.7,9.6,15.7,9.7,15,0
				c-1.6-20.9-7.7-41-20.8-57.6C328.8,100,315,90.2,299.8,83.7c-13.7-5.9-28-9.2-42.8-10.8c-10.7-1.1-29.9-3.9-30.6,11.2
				c-1.5,29.6-0.4,59.5-0.3,89.1c0,4.7,4.8,8.8,9.5,7.2c17.6-5.9,37.4-8,55.8-8.8c19.9-0.8,39.7,1.5,59,6.3
				C359.7,180.3,363.7,165.9,354.3,163.5z"
  /><path
    fill="#0D71BA"
    d="M368.1,344.5c-44.4-64.5-24-133.1-9.5-165.8c0.6-1.4,0.6-3-0.1-4.4c-0.7-1.4-1.9-2.4-3.4-2.8
			c-0.9-0.2-1.8-0.5-2.7-0.7c-0.1,0-0.1,0-0.2-0.1c-17.4-4.4-35.4-6.7-53.4-6.7c-22.3,0-44.3,3.5-65.4,9.1c0,0,0,0-0.1,0
			c-32,8.6-61.8,22.1-86.7,35.8c-0.1,0.1-0.2,0.1-0.3,0.2C114,227.1,89.9,245.3,80.2,253c-1.2,1-1.9,2.4-2,3.9c0,1.6,0.6,3,1.7,4.1
			c8.8,8.2,30.4,27.2,59.8,46.8c26.9,17.9,60.4,36.4,96.6,47.3c20.3,6.1,41.4,9.8,62.7,9.8c16.1,0,32.1-2.1,47.6-6.2
			c6.5-1.7,12.9-3.8,19.2-6.1c1.5-0.6,2.7-1.9,3.1-3.5C369.4,347.6,369.1,345.9,368.1,344.5z M287.3,218.6
			c-79.6,0-120.4,39.3-120.9,39.7c-2,2-4.7,3.1-7.5,3.1c-4.3,0-8.2-2.6-9.8-6.6c-1.6-4-0.8-8.5,2.2-11.6c1.9-2,46.9-46,135.9-46
			c5.9,0,10.7,4.8,10.7,10.7C298,213.8,293.2,218.6,287.3,218.6z"
  /><path
    d="M287.3,211.1c-40.3,0.1-82.2,9.9-115.6,33.5c-3.3,2.3-6.5,4.8-9.5,7.4c-0.4,0.3-0.7,0.7-1.1,1c-3,2.7-7.2-1.6-4.4-4.5
				c1.5-1.6,3.2-3,4.9-4.4c0.7-0.6,1.5-1.2,2.3-1.8c1.4-1.1-1.3,1,0.2-0.2c0.5-0.4,1-0.7,1.4-1.1c2.4-1.8,4.9-3.5,7.4-5.1
				c15.9-10.3,33.4-17.8,51.6-22.9c12.7-3.6,25.7-5.9,38.9-7.2c7.9-0.8,15.9-1.1,23.9-1.1C291.5,204.7,291.4,210.8,287.3,211.1
				c-9.6,0.6-9.7,15.6,0,15c14.1-0.9,21.7-14.3,15.9-27c-6-13.1-25.3-9.4-36.6-8.6c-23.5,1.8-46.7,6.9-68.6,15.7
				c-14.2,5.7-27.8,12.8-40.1,21.9c-8.1,6-17.8,12.6-17,24c0.7,10.6,11,18.5,21.4,16.4c4.3-0.9,7.5-3.3,10.7-6.1
				c0.7-0.6,1.5-1.2,2.2-1.9c0.4-0.3,2.4-1.9,0.6-0.5c0.7-0.5,1.4-1.1,2.1-1.6c3.8-2.8,7.7-5.3,11.7-7.7
				c29.4-17.4,63.8-24.6,97.7-24.8C297,226,297,211,287.3,211.1z"
  /><path
    d="M374.6,340.7c-15.7-23.1-24.7-49.3-25.9-77.2c-0.9-21.8,3-43.5,9.9-64.2c1.3-4,2.8-7.9,4.4-11.8c2-4.9,4.6-9.5,2.8-15.2
				c-1.9-6.1-7.8-7.9-13.3-9.3c-8.1-2-16.4-3.5-24.7-4.6c-31.7-4.1-63.5-1-94.4,7c-53.5,13.8-103.9,41.3-148,74.1
				c-8,6-20.7,14.3-11.8,25.6c5.5,6.9,13.6,12.5,20.3,18c22,18.2,45.5,34.6,70.3,48.7c34.2,19.4,71.3,33.9,110.3,39
				c20.3,2.6,40.7,1.7,60.8-2c9.8-1.8,19.5-4.5,28.9-7.8c4.5-1.6,7.8-3.1,10.6-7.1C377.7,350.1,376.6,344.6,374.6,340.7
				c-4.4-8.6-17.3-1-13,7.6c0.1-0.8,0.3-1.5,0.4-2.3c-1.1,0.4-2.3,0.8-3.5,1.2c-1.7,0.6-3.5,1.2-5.2,1.7c-3.5,1.1-7.1,2.1-10.7,3
				c-8,2.1-16.2,3.5-24.5,4.4c-15.7,1.7-31.6,1.3-47.2-1c-30.4-4.5-59.6-15.7-86.8-29.8c-25.7-13.3-50-29.5-72.7-47.4
				c-8-6.4-15.9-13-23.5-19.9c-0.6-0.5-1.2-1.1-1.8-1.6c-2.2-2,0.6,0.1-0.7,1.6c0.7-0.7,2.5-2,2.8-2.2c3.7-2.9,7.5-5.7,11.3-8.4
				c46-33.2,98.4-60.2,154.2-71.6c31.3-6.4,63.5-6.1,94.6,1.4c1.1,0.3,2.3,0.6,3.4,0.9c3.3,0.8,0.4-3.8-0.4-1.8
				c-0.9,2-1.7,4-2.6,6.1c-1.7,4.2-3.3,8.4-4.7,12.7c-3.3,9.7-5.8,19.6-7.6,29.7c-7.7,43,0.4,86.9,25.1,123.2
				C367,356.3,380,348.8,374.6,340.7z"
  /><g><path
      fill="#0D71BA"
      d="M386.1,182.1c-2.7-1.1-5.7,0.1-7,2.7c-13.3,27.8-35.2,92.4,10,152.5c1.7,2.1,4.6,2.8,7,1.5
			c36.7-20.6,68.8-48.5,94.4-82C461.6,224.7,425.9,199.1,386.1,182.1z M402,261.3c-8.8,0-16-7.2-16-16c0-8.8,7.2-16,16-16
			s16,7.2,16,16C418,254.1,410.8,261.3,402,261.3z"
    /><path
      d="M388.1,174.9c-12.4-3.6-16.7,8.4-20.4,17.4c-3.5,8.4-6.2,17.1-8.4,25.9c-5.6,22.8-6.4,46.5-1.5,69.5
				c2.9,13.4,8.1,26.3,14.8,38.2c3.4,6,7.2,12.7,12.1,17.7c5.9,6,13.5,2.7,19.6-0.8c24.2-14.1,46.5-31.6,66.2-51.5
				c9.5-9.6,18.2-20,26.5-30.7c2.1-2.7,0.9-6.8-1.2-9.1c-29.4-32.5-65.6-58.6-105.9-75.9c-3.8-1.6-8-1.2-10.3,2.7
				c-1.9,3.2-1.1,8.6,2.7,10.3c39.2,16.9,74.2,41.9,102.9,73.6c-0.4-3-0.8-6.1-1.2-9.1c-15.9,20.7-34.6,39.4-55.2,55.3
				c-10.6,8.2-21.9,15.6-33.5,22.3c-2.8,1.6-1.4,0.6-0.8,1.3c-1.1-1.5-2.2-3-3.2-4.6c-2-3-3.9-6-5.7-9.2c-3.3-5.8-6.1-11.8-8.5-18.1
				c-7.8-21-9.4-43.8-5.9-65.8c1.5-9.4,3.9-18.6,7-27.7c1.3-3.8,2.7-7.6,4.3-11.3c0.4-0.9,1.2-2.7,1.7-3.9c0.3-0.7,0.7-1.5,1-2.2
				c0.9-1.8-0.4,0.2-1.2,0C393.5,192,397.4,177.5,388.1,174.9z"
    /><path
      d="M402,253.8c-11-0.5-11-16.5,0-17C413,236.3,412.9,253.3,402,253.8c-9.6,0.4-9.7,15.4,0,15c13.2-0.6,22.9-10.3,23.5-23.5
				c0.6-13.2-11.2-23-23.5-23.5c-13.2-0.6-23,11.2-23.5,23.5c-0.6,13.2,11.2,23,23.5,23.5C411.7,269.2,411.6,254.2,402,253.8z"
    /></g><g><path
      fill="#2E358F"
      d="M298,207.9c0,5.9-4.8,10.7-10.7,10.7c-79.6,0-120.4,39.3-120.9,39.7c-2,2-4.7,3.1-7.5,3.1
			c-4.3,0-8.2-2.6-9.8-6.6c-1.6-4-0.8-8.5,2.2-11.6c1.9-2,46.9-46,135.9-46C293.2,197.2,298,202,298,207.9z"
    /><path
      d="M290.5,207.9c-0.3,5-8.7,3.2-11.9,3.4c-7.1,0.2-14.2,0.9-21.2,1.8c-12,1.5-23.8,4-35.4,7.5c-16.3,5-32.2,12.1-46.4,21.5
				c-4.1,2.7-8,5.6-11.7,8.7c-2,1.6-4.3,4.6-7,2.3c-2.9-2.6,0.9-5.5,2.7-7.1c1.3-1.1,2.6-2.2,4-3.3c0.3-0.2,1.7-1.3,0.2-0.1
				c0.5-0.4,0.9-0.7,1.4-1.1c1.2-0.9,2.4-1.8,3.7-2.6c14.4-10.1,30.4-17.6,47-23.1c12-4,24.5-6.7,37-8.6c7.4-1.1,14.8-1.7,22.3-2.1
				c4.1-0.2,8.2-0.3,12.2-0.3C289.2,204.7,290.4,206.1,290.5,207.9c0.6,9.6,15.6,9.7,15,0c-0.4-6.1-2.9-12-8.3-15.3
				c-6.2-3.8-13.4-3-20.4-2.7c-13.4,0.5-26.7,2.1-39.9,4.7c-20.2,4-39.8,10.9-58,20.4c-10.5,5.5-20.5,12.1-29.5,19.8
				c-2.8,2.4-5.2,4.7-6.8,8.1c-6.3,13,5.4,28.5,19.7,25.6c4.2-0.9,7.4-3.2,10.5-5.9c0.8-0.7,1.6-1.4,2.4-2c0.4-0.3,2.4-1.9,0.6-0.5
				c0.7-0.5,1.4-1.1,2.1-1.6c8.6-6.3,18.1-11.6,27.8-16c15-6.9,31.3-11.2,47.6-13.9c10.7-1.8,21.5-2.4,32.3-2.6
				c11-0.1,19.3-6.9,20-18.2C306.1,198.2,291.1,198.3,290.5,207.9z"
    /></g><g><path
      fill="#544741"
      d="M418,245.3c0,8.8-7.2,16-16,16s-16-7.2-16-16c0-8.8,7.2-16,16-16S418,236.4,418,245.3z"
    /><path
      d="M410.5,245.3c-0.5,11-16.5,11-17,0C393,234.3,410,234.3,410.5,245.3c0.4,9.6,15.4,9.7,15,0c-0.6-13.2-10.3-22.9-23.5-23.5
			c-13.2-0.6-23,11.2-23.5,23.5c-0.6,13.2,11.2,23,23.5,23.5c13.2,0.6,23-11.2,23.5-23.5C425.9,235.6,410.9,235.6,410.5,245.3z"
    /></g></svg>
